<svg width="24.000000" height="24.000000" viewBox="0 0 24 24" fill="none" xmlns="http://www.w3.org/2000/svg" xmlns:xlink="http://www.w3.org/1999/xlink">
	<desc>
			Created with Pixso.
	</desc>
	<defs>
		<clipPath id="clip61_292">
			<rect id="Frame" width="24.000000" height="24.000000" fill="white" fill-opacity="0"/>
		</clipPath>
	</defs>
	<rect id="Frame" width="24.000000" height="24.000000" fill="#FFFFFF" fill-opacity="0"/>
	<g clip-path="url(#clip61_292)">
		<path id="Vector" d="M15 19.12C15.85 19.37 16.73 19.5 17.62 19.5C19.05 19.5 20.46 19.17 21.74 18.54C21.78 17.65 21.52 16.76 21.01 16.02C20.5 15.29 19.77 14.73 18.92 14.45C18.06 14.17 17.14 14.17 16.29 14.46C15.44 14.75 14.71 15.31 14.21 16.05M15 19.12C15 18.01 14.71 16.96 14.21 16.05C13.53 14.81 12.45 13.83 11.15 13.27C9.85 12.7 8.41 12.59 7.03 12.94C5.66 13.29 4.45 14.09 3.58 15.21C2.71 16.33 2.24 17.7 2.24 19.12L2.25 19.23C4.11 20.35 6.29 21 8.62 21C10.87 21 13.07 20.39 15 19.23L15 19.12L15 19.12ZM11.01 8.76C10.37 9.39 9.52 9.75 8.62 9.75C7.72 9.75 6.87 9.39 6.23 8.76C5.6 8.12 5.25 7.27 5.25 6.37C5.25 5.47 5.6 4.62 6.23 3.98C6.87 3.35 7.72 3 8.62 3C9.52 3 10.37 3.35 11.01 3.98C11.64 4.62 12 5.47 12 6.37C12 7.27 11.64 8.12 11.01 8.76ZM19.48 10.48C18.98 10.97 18.32 11.25 17.62 11.25C16.92 11.25 16.26 10.97 15.76 10.48C15.27 9.98 15 9.32 15 8.62C15 7.92 15.27 7.26 15.76 6.76C16.26 6.27 16.92 6 17.62 6C18.32 6 18.98 6.27 19.48 6.76C19.97 7.26 20.25 7.92 20.25 8.62C20.25 9.32 19.97 9.98 19.48 10.48Z" stroke="#0B0223" stroke-opacity="1.000000" stroke-width="1.500000" stroke-linejoin="round"/>
	</g>
</svg>
