<svg width="24.000000" height="24.000000" viewBox="0 0 24 24" fill="none" xmlns="http://www.w3.org/2000/svg" xmlns:xlink="http://www.w3.org/1999/xlink">
	<desc>
			Created with Pixso.
	</desc>
	<defs>
		<clipPath id="clip61_274">
			<rect id="Frame" width="24.000000" height="24.000000" fill="white" fill-opacity="0"/>
		</clipPath>
		<linearGradient x1="10.584446" y1="11.999174" x2="15.337137" y2="11.999174" id="paint_linear_61_276_0" gradientUnits="userSpaceOnUse">
			<stop stop-color="#FF42A5"/>
			<stop offset="1.000000" stop-color="#FF42A5"/>
		</linearGradient>
	</defs>
	<rect id="Frame" width="24.000000" height="24.000000" fill="#FFFFFF" fill-opacity="0"/>
	<g clip-path="url(#clip61_274)">
		<path id="Vector" d="M20.31 15.44C19.86 16.53 19.19 17.52 18.36 18.36C17.52 19.19 16.53 19.86 15.44 20.31C14.35 20.76 13.18 21 12 21C10.81 21 9.64 20.76 8.55 20.31C7.46 19.86 6.47 19.19 5.63 18.36C4.8 17.52 4.13 16.53 3.68 15.44C3.23 14.35 3 13.18 3 12C3 9.61 3.94 7.32 5.63 5.63C7.32 3.94 9.61 3 12 3C14.38 3 16.67 3.94 18.36 5.63C20.05 7.32 21 9.61 21 12C21 13.18 20.76 14.35 20.31 15.44Z" stroke="#0B0223" stroke-opacity="1.000000" stroke-width="1.500000" stroke-linejoin="round"/>
		<path id="Vector" d="M15.91 11.67C15.96 11.7 16.01 11.75 16.05 11.8C16.08 11.86 16.1 11.93 16.1 12C16.1 12.06 16.08 12.13 16.05 12.19C16.01 12.24 15.96 12.29 15.91 12.32L10.3 15.44C10.24 15.47 10.18 15.48 10.12 15.48C10.05 15.48 9.99 15.46 9.93 15.43C9.87 15.4 9.83 15.35 9.79 15.29C9.76 15.24 9.75 15.17 9.75 15.11L9.75 8.88C9.75 8.6 10.05 8.42 10.3 8.55L15.91 11.67Z" fill="#000000" fill-opacity="1.000000" fill-rule="nonzero"/>
		<path id="Vector" d="M16.05 11.8C16.08 11.86 16.1 11.93 16.1 12C16.1 12.06 16.08 12.13 16.05 12.19C16.01 12.24 15.96 12.29 15.91 12.32L10.3 15.44C10.24 15.47 10.18 15.48 10.12 15.48C10.05 15.48 9.99 15.46 9.93 15.43C9.87 15.4 9.83 15.35 9.79 15.29C9.76 15.24 9.75 15.17 9.75 15.11L9.75 8.88C9.75 8.6 10.05 8.42 10.3 8.55L15.91 11.67C15.96 11.7 16.01 11.75 16.05 11.8Z" stroke="url(#paint_linear_61_276_0)" stroke-opacity="1.000000" stroke-width="1.500000" stroke-linejoin="round"/>
	</g>
</svg>
