<svg width="48.000000" height="48.000000" viewBox="0 0 48 48" fill="none" xmlns="http://www.w3.org/2000/svg" xmlns:xlink="http://www.w3.org/1999/xlink">
	<desc>
			Created with Pixso.
	</desc>
	<defs/>
	<path id="Vector" d="M24 0C10.76 0 0 10.76 0 24C0 37.23 10.76 48 24 48C37.23 48 48 37.23 48 24C48 10.76 37.23 0 24 0ZM33.54 24.84L19.54 33.84C19.37 33.94 19.18 34 19 34C18.83 34 18.66 33.95 18.52 33.87C18.19 33.7 18 33.36 18 33L18 15C18 14.63 18.19 14.29 18.52 14.12C18.83 13.94 19.23 13.95 19.54 14.15L33.54 23.15C33.82 23.34 34 23.66 34 24C34 24.33 33.82 24.65 33.54 24.84Z" fill="#FFFFFF" fill-opacity="1.000000" fill-rule="nonzero"/>
</svg>
