<svg width="24.000000" height="24.000000" viewBox="0 0 24 24" fill="none" xmlns="http://www.w3.org/2000/svg" xmlns:xlink="http://www.w3.org/1999/xlink">
	<desc>
			Created with Pixso.
	</desc>
	<defs>
		<clipPath id="clip61_234">
			<rect id="tik-tok 1" width="24.000000" height="24.000000" fill="white" fill-opacity="0"/>
		</clipPath>
	</defs>
	<rect id="tik-tok 1" width="24.000000" height="24.000000" fill="#FFFFFF" fill-opacity="0"/>
	<g clip-path="url(#clip61_234)">
		<path id="Vector" d="M8.53 12.44C6.63 12.44 5.09 13.97 5.12 15.86C5.14 17.07 5.8 18.12 6.78 18.7C6.45 18.19 6.25 17.59 6.24 16.94C6.22 15.05 7.75 13.51 9.66 13.51C10.03 13.51 10.39 13.57 10.73 13.68L10.73 9.91C10.38 9.86 10.02 9.83 9.66 9.83C9.64 9.83 9.62 9.83 9.6 9.83L9.6 12.6C9.27 12.5 8.91 12.44 8.53 12.44Z" fill="#F00044" fill-opacity="1.000000" fill-rule="nonzero"/>
		<path id="Vector" d="M16.76 1.12L16.73 1.12L15.75 1.12C16.04 2.53 16.83 3.76 17.93 4.59C17.21 3.63 16.77 2.43 16.76 1.12Z" fill="#F00044" fill-opacity="1.000000" fill-rule="nonzero"/>
		<path id="Vector" d="M22.5 6.86C22.12 6.86 21.77 6.82 21.42 6.76L21.42 9.46C20.14 9.46 18.9 9.22 17.74 8.72C16.99 8.4 16.29 7.99 15.65 7.5L15.67 15.84C15.66 17.71 14.92 19.47 13.58 20.8C12.49 21.88 11.1 22.57 9.6 22.79C9.25 22.84 8.89 22.87 8.53 22.87C6.93 22.87 5.4 22.35 4.16 21.38C4.3 21.55 4.45 21.72 4.61 21.88C5.96 23.21 7.75 23.94 9.66 23.94C10.02 23.94 10.38 23.92 10.73 23.86C12.23 23.64 13.62 22.95 14.71 21.88C16.05 20.55 16.79 18.79 16.8 16.92L16.73 8.58C17.37 9.07 18.07 9.48 18.82 9.8C19.99 10.29 21.22 10.54 22.5 10.54L22.5 6.86Z" fill="#F00044" fill-opacity="1.000000" fill-rule="nonzero"/>
		<path id="Vector" d="M4.6 11.91C5.93 10.58 7.71 9.84 9.6 9.83L9.6 8.83C9.25 8.78 8.89 8.75 8.53 8.75C6.62 8.75 4.82 9.49 3.47 10.83C2.15 12.15 1.39 13.95 1.39 15.82C1.39 17.7 2.14 19.47 3.48 20.8C3.7 21.01 3.92 21.21 4.15 21.39C3.09 20.13 2.52 18.55 2.51 16.89C2.52 15.02 3.27 13.22 4.6 11.91Z" fill="#08FFF9" fill-opacity="1.000000" fill-rule="nonzero"/>
		<path id="Vector" d="M21.42 6.76L21.42 5.76L21.41 5.76C20.1 5.76 18.9 5.32 17.94 4.59C18.78 5.7 20.01 6.49 21.42 6.76Z" fill="#08FFF9" fill-opacity="1.000000" fill-rule="nonzero"/>
		<path id="Vector" d="M9.46 20.25C9.91 20.28 10.34 20.22 10.73 20.09C12.09 19.64 13.07 18.38 13.07 16.89L13.07 11.31L13.07 1.12L15.75 1.12C15.68 0.77 15.65 0.41 15.64 0.04L11.95 0.04L11.95 10.23L11.94 15.81C11.94 17.3 10.96 18.56 9.6 19.01C9.21 19.14 8.78 19.2 8.34 19.17C7.77 19.14 7.24 18.97 6.78 18.7C7.36 19.59 8.34 20.19 9.46 20.25Z" fill="#08FFF9" fill-opacity="1.000000" fill-rule="nonzero"/>
		<path id="Vector" d="M9.6 22.79C11.1 22.57 12.49 21.88 13.58 20.8C14.92 19.47 15.66 17.71 15.67 15.84L15.65 7.5C16.29 7.99 16.99 8.4 17.74 8.72C18.91 9.21 20.15 9.46 21.42 9.46L21.42 6.76C20.01 6.49 18.78 5.7 17.94 4.59C16.83 3.76 16.04 2.53 15.76 1.12L13.07 1.12L13.07 11.31L13.07 16.88C13.07 18.37 12.09 19.64 10.73 20.09C10.34 20.22 9.91 20.28 9.46 20.25C8.34 20.19 7.36 19.58 6.78 18.7C5.8 18.12 5.14 17.06 5.12 15.85C5.09 13.97 6.63 12.43 8.53 12.43C8.91 12.43 9.27 12.49 9.6 12.6L9.6 9.82C7.71 9.84 5.93 10.57 4.6 11.9C3.27 13.22 2.51 15.02 2.52 16.88C2.52 18.54 3.09 20.12 4.16 21.38C5.4 22.34 6.93 22.86 8.53 22.86C8.89 22.87 9.25 22.84 9.6 22.79Z" fill="#000000" fill-opacity="1.000000" fill-rule="nonzero"/>
	</g>
</svg>
