<svg width="33.916260" height="24.000000" viewBox="0 0 33.9163 24" fill="none" xmlns="http://www.w3.org/2000/svg" xmlns:xlink="http://www.w3.org/1999/xlink">
	<desc>
			Created with Pixso.
	</desc>
	<defs/>
	<path id="Vector" d="M26.87 0L7.04 0C3.15 0 0 3.15 0 7.04L0 16.95C0 20.84 3.15 24 7.04 24L26.87 24C30.76 24 33.91 20.84 33.91 16.95L33.91 7.04C33.91 3.15 30.76 0 26.87 0ZM22.1 12.48L12.83 16.9C12.58 17.02 12.3 16.84 12.3 16.56L12.3 7.44C12.3 7.16 12.59 6.98 12.84 7.11L22.11 11.81C22.39 11.95 22.38 12.34 22.1 12.48Z" fill="#F61C0D" fill-opacity="1.000000" fill-rule="nonzero"/>
</svg>
